# xmcd
#
# Track frame offsets:
#	150
#	22649
#	39626
#	67871
#	86248
#	100204
#	129282
#	153395
#	168691
#	198138
#	226872
#
# Disc length: 4308 seconds
#
# Revision: 1
# Processed by: cddbd v1.5.2PL0 Copyright (c) Steve Scherf et al.
# Submitted via: EZCDAudioConverter 2.1.7.1
#
DISCID=7d10d20b
DTITLE=V/A - Real World Notes V08
DYEAR=1900
DGENRE=
TTITLE0=Ananda Shankar Experience and State Of Bengal - Alma Ata
TTITLE1=Mara! with Martenitsa Choir - Harvest: All Summer/Zhetva: Tsyalo Lyato
TTITLE2=Tama - ATT (Amadou Toumani Toure)
TTITLE3=Sheila Chandra - Lagan Love/Nada Brahma
TTITLE4=Joseph Arthur - Vacancy
TTITLE5=Remmy Ongala and Orchestre Super Matimila - Kipenda Roho
TTITLE6=Joi - Asian Vibes [Way Out West Mix]
TTITLE7=Totó La Momposina Y Sus Tambores - La Sombra Negra
TTITLE8=Rizwan-Muazzam Qawwali - Manum Khak E Sarey [Edit]
TTITLE9=Peter Gabriel featuring Paddy Maloney and The Black Dyke Mills Band - Th
TTITLE9=at'll Do
TTITLE10=Various Artist - Ecd Track11
EXTD=
EXTT0=
EXTT1=
EXTT2=
EXTT3=
EXTT4=
EXTT5=
EXTT6=
EXTT7=
EXTT8=
EXTT9=
EXTT10=
PLAYORDER=
